<svg width="27" height="27" viewBox="0 0 27 27" fill="none" xmlns="http://www.w3.org/2000/svg">
<path d="M13.4998 25.7982C10.2148 25.7982 7.12631 24.519 4.80389 22.1962C2.48089 19.8734 1.20166 16.7851 1.20166 13.5003C1.20166 10.2153 2.48089 7.12681 4.80368 4.80387C7.12647 2.48092 10.2148 1.20184 13.5001 1.20184C16.7855 1.20184 19.8736 2.48107 22.196 4.80387C24.5184 7.12666 25.798 10.2149 25.798 13.5003C25.798 16.7856 24.5188 19.8738 22.196 22.1962C19.8732 24.5186 16.7849 25.7982 13.5001 25.7982H13.4998ZM13.4998 1.92852C7.11893 1.92852 1.92829 7.11959 1.92829 13.5C1.92829 19.8805 7.11935 25.0715 13.4998 25.0715C19.8802 25.0715 25.0713 19.8805 25.0713 13.5C25.0711 7.11917 19.8802 1.92852 13.4998 1.92852Z" fill="white"/>
<path d="M15.5761 21.647C15.1479 21.647 14.7488 21.4554 14.4815 21.1211L13.3837 19.7489L11.8961 21.2366C11.6314 21.5011 11.2795 21.647 10.9052 21.647C10.5309 21.647 10.1791 21.5011 9.91461 21.2366C9.64991 20.9719 9.50428 20.6201 9.50428 20.246C9.50428 19.8717 9.65012 19.5199 9.91461 19.2552L12.0988 17.071V12.8092L9.75973 11.6398C9.06881 11.2944 8.78763 10.451 9.13309 9.7601C9.47854 9.06917 10.3219 8.7882 11.0128 9.13345L13.5 10.3768L15.9869 9.13345C16.678 8.788 17.5212 9.06918 17.8666 9.7601C18.0341 10.0948 18.0611 10.4747 17.9427 10.8296C17.8244 11.1847 17.5747 11.4723 17.24 11.6395L14.901 12.8092V17.1598L16.6696 19.3705C17.1523 19.9738 17.054 20.8571 16.4509 21.3398C16.2033 21.538 15.8926 21.647 15.5762 21.647L15.5761 21.647ZM13.4138 18.842C13.4204 18.842 13.4272 18.8422 13.434 18.8426C13.5372 18.8484 13.633 18.8978 13.6975 18.9784L15.0488 20.6675C15.1775 20.8284 15.3697 20.9207 15.5761 20.9207C15.7304 20.9207 15.876 20.8696 15.9968 20.7728C16.2872 20.5404 16.3344 20.115 16.102 19.8246L14.2538 17.5144C14.2023 17.4499 14.1743 17.37 14.1743 17.2873V12.5847C14.1743 12.4471 14.252 12.3214 14.3752 12.2599L16.9149 10.9899C17.0759 10.9094 17.1962 10.7707 17.2531 10.6C17.3102 10.429 17.2972 10.2461 17.2164 10.085C17.05 9.7523 16.644 9.61696 16.3113 9.7834L13.6622 11.1079C13.5599 11.159 13.4396 11.159 13.3374 11.1079L10.6881 9.78319C10.3554 9.61675 9.94942 9.75229 9.78299 10.085C9.61676 10.4177 9.75209 10.8237 10.0848 10.9899L12.6245 12.2598C12.7476 12.3214 12.8253 12.4471 12.8253 12.5847V17.2214C12.8253 17.3178 12.787 17.4101 12.719 17.4783L10.4283 19.769C10.3008 19.8965 10.2308 20.0658 10.2308 20.2461C10.2308 20.4263 10.301 20.5956 10.4283 20.7229C10.5558 20.8502 10.7252 20.9205 10.9054 20.9205C11.0857 20.9205 11.255 20.8502 11.3825 20.7229L13.1571 18.9483C13.2253 18.8801 13.3176 18.842 13.4138 18.842Z" fill="white"/>
<path d="M13.5 9.19324C12.1553 9.19324 11.061 8.09921 11.061 6.75427C11.061 5.40955 12.1551 4.31531 13.5 4.31531C14.8447 4.31531 15.939 5.40933 15.939 6.75427C15.9388 8.099 14.8447 9.19324 13.5 9.19324ZM13.5 5.04183C12.5557 5.04183 11.7876 5.80996 11.7876 6.75427C11.7876 7.69859 12.5557 8.46672 13.5 8.46672C14.4443 8.46672 15.2124 7.69859 15.2124 6.75427C15.2122 5.81001 14.4441 5.04183 13.5 5.04183Z" fill="white"/>
</svg>
