<svg width="27" height="27" viewBox="0 0 27 27" fill="none" xmlns="http://www.w3.org/2000/svg">
<path d="M2.45737 11.4244L2.38672 10.5942H2.47406V10.835L2.70642 11.3457C2.66378 11.3651 2.61928 11.3803 2.57376 11.3912L2.45737 11.4244Z" fill="black"/>
<path d="M16.323 10.4651L16.0117 9.69306C16.1707 9.62591 16.3127 9.52374 16.4268 9.39417L17.0744 9.91306C16.8818 10.165 16.621 10.3568 16.323 10.4651Z" fill="black"/>
<path d="M17.2364 9.70949L16.6055 9.16981V9.17001C16.7975 8.93498 17.0479 8.75453 17.3318 8.64679L17.6515 9.41492C17.4927 9.48063 17.351 9.58136 17.2364 9.70949Z" fill="black"/>
<path d="M2.29133 11.4244C1.96112 11.4244 1.64428 11.2932 1.41072 11.0598C1.17712 10.8262 1.0459 10.5093 1.0459 10.1792V8.1036C1.0459 7.77319 1.17712 7.45639 1.41072 7.22299C1.64431 6.98939 1.96116 6.85817 2.29133 6.85817H10.27C10.8806 6.86991 11.4466 7.18014 11.7853 7.68831C11.9684 7.94931 12.2675 8.10442 12.5864 8.1036H14.4212C14.7592 8.08547 15.0682 7.90646 15.2515 7.62199C15.5908 7.1381 16.1468 6.85238 16.7376 6.85818H24.7079C25.0381 6.85818 25.3549 6.9894 25.5885 7.223C25.8221 7.45639 25.9533 7.77323 25.9533 8.10361V9.72682V9.72662C25.9564 10.0117 25.8635 10.2896 25.6894 10.5154C25.5156 10.7413 25.2706 10.9022 24.9944 10.9721C24.9009 10.9966 24.8044 11.0091 24.7078 11.0093C24.3776 11.0093 24.0608 10.8781 23.8272 10.6445C23.5936 10.4111 23.4624 10.0943 23.4624 9.76392C23.4643 9.65597 23.4206 9.55195 23.3421 9.47758C23.2651 9.39684 23.159 9.35048 23.0473 9.34884H17.8458L17.7502 9.36964L17.6215 9.41125H17.6217C17.4738 9.46769 17.3436 9.56225 17.2439 9.68522C17.2202 9.70994 17.1979 9.73631 17.1775 9.76391L17.1402 9.80964H17.14C17.1089 9.86135 17.0712 9.90873 17.028 9.95075C16.8391 10.1652 16.6051 10.3351 16.3431 10.449L16.1978 10.503L16.065 10.5362C16.0143 10.5498 15.963 10.5609 15.9113 10.5693C15.8367 10.5753 15.7618 10.5753 15.6872 10.5693H11.1043C11.0385 10.5605 10.9734 10.5479 10.9092 10.5321C10.8645 10.5244 10.821 10.5104 10.7804 10.4905L10.6974 10.4655C10.4193 10.3514 10.1709 10.1753 9.97089 9.95075L9.87119 9.83045L9.80898 9.76392L9.76325 9.69759C9.66788 9.57482 9.53996 9.48129 9.39391 9.42773L9.30677 9.39457H9.26104L9.13642 9.34884H3.95157C3.7223 9.34884 3.5365 9.53464 3.5365 9.76392V10.1417C3.54062 10.1901 3.54062 10.2387 3.5365 10.2871C3.51219 10.5323 3.41846 10.7655 3.26664 10.9595L3.17951 11.0592C3.08599 11.1568 2.97455 11.2357 2.85157 11.2918C2.78915 11.3282 2.7222 11.3563 2.65217 11.3748L2.51518 11.4244H2.43216C2.3852 11.4283 2.33802 11.4283 2.29106 11.4244L2.29133 11.4244ZM2.29133 7.68827C2.06205 7.68827 1.87625 7.87428 1.87625 8.10355V10.1791C1.8744 10.2873 1.91807 10.3911 1.99655 10.4655C2.07359 10.5462 2.17988 10.5926 2.29132 10.5942H2.4075L2.4864 10.5652C2.51874 10.5493 2.5482 10.5283 2.57373 10.5029L2.60278 10.4657V10.4655C2.66581 10.3829 2.70207 10.2829 2.70639 10.1791V9.76384C2.70639 9.43363 2.83761 9.11679 3.07121 8.88344C3.30481 8.64984 3.62165 8.51862 3.95182 8.51862H9.04543C9.12001 8.51244 9.19498 8.51244 9.26956 8.51862L9.44815 8.55591C9.48111 8.56126 9.51324 8.57094 9.54352 8.58495C9.59935 8.59875 9.65373 8.61812 9.70544 8.64304C9.98147 8.75037 10.2237 8.92958 10.4071 9.16194C10.44 9.19737 10.4705 9.23465 10.4983 9.274L10.5274 9.31128L10.5276 9.31149C10.5467 9.33889 10.5675 9.36525 10.5898 9.39039C10.7043 9.51728 10.8462 9.61657 11.0049 9.68084L11.121 9.71812L11.2331 9.73893L15.6875 9.73913H15.7831L15.891 9.71833H15.945L16.0072 9.69752C16.1658 9.6279 16.3076 9.52449 16.4223 9.39451L16.4555 9.35722L16.5261 9.26164L16.6133 9.15782C16.8024 8.92793 17.0485 8.75201 17.3272 8.64716C17.3719 8.6247 17.4193 8.60802 17.4683 8.59751C17.5048 8.58433 17.5423 8.57465 17.5804 8.56847C17.6311 8.55467 17.6824 8.54354 17.7341 8.5351H23.0476C23.378 8.5351 23.6946 8.66632 23.9282 8.89991C24.1618 9.13351 24.293 9.45035 24.293 9.78052C24.2912 9.88867 24.3348 9.99249 24.4133 10.0671C24.493 10.1416 24.5989 10.182 24.7081 10.1791H24.8037C25.0026 10.1212 25.1353 9.93358 25.1232 9.72656V8.10355C25.1232 7.99335 25.0795 7.88767 25.0016 7.81001C24.9238 7.73214 24.8183 7.68827 24.7081 7.68827H16.7378C16.4202 7.68744 16.1223 7.84256 15.9408 8.10355C15.6009 8.61235 15.0334 8.92257 14.4214 8.93369H12.5867C11.9981 8.93452 11.4465 8.64778 11.1089 8.16578C10.9249 7.88233 10.6159 7.70476 10.2785 7.68828L2.29133 7.68827Z" fill="black"/>
<path d="M2.45737 11.4244L2.38672 10.5942H2.48251V10.8101L2.70642 11.3457C2.66378 11.3651 2.61929 11.3803 2.57376 11.3912L2.45737 11.4244Z" fill="black"/>
<path d="M16.323 10.4651L16.0117 9.69306C16.1707 9.62591 16.3127 9.52374 16.4268 9.39417L17.0744 9.91306C16.8818 10.165 16.621 10.3568 16.323 10.4651Z" fill="black"/>
<path d="M19.7268 20.557H17.1863C16.7504 20.5563 16.3257 20.4183 15.9724 20.1629C15.6193 19.9073 15.3554 19.547 15.2186 19.1329L14.6167 17.3395V17.3398C14.6015 17.3033 14.5805 17.2697 14.5543 17.2401C14.3189 17.0038 14.0082 16.8573 13.676 16.8262C13.3439 16.7953 13.0114 16.8814 12.7362 17.0699C12.5115 17.2314 12.343 17.4594 12.2546 17.7216L11.7815 19.1372C11.6439 19.5503 11.3798 19.9097 11.0265 20.1645C10.6734 20.4193 10.2491 20.5565 9.81362 20.5569H7.27309C5.84183 20.5569 4.4691 19.9884 3.45707 18.9761C2.44505 17.9641 1.87646 16.5915 1.87646 15.1603V10.5938H2.4036L2.48662 10.5607C2.51896 10.5448 2.54842 10.5236 2.57396 10.4982L2.603 10.461C2.6683 10.3928 2.70538 10.3023 2.70661 10.2078V9.76346C2.70661 9.43326 2.83783 9.11641 3.07143 8.88306C3.30503 8.64946 3.62187 8.51825 3.95204 8.51825H9.04566C9.12023 8.51207 9.1952 8.51207 9.26978 8.51825L9.44837 8.55553C9.48133 8.56089 9.51347 8.57057 9.54375 8.58458C9.59957 8.59838 9.65395 8.61774 9.70566 8.64267C9.97613 8.76009 10.2161 8.93744 10.4073 9.16156C10.4425 9.19493 10.4732 9.23243 10.4985 9.27362L10.5276 9.31091L10.5278 9.31111C10.547 9.33851 10.5678 9.36488 10.59 9.39001C10.6928 9.51793 10.8273 9.6166 10.9802 9.67634L11.1089 9.71795L11.221 9.73876H15.7833L15.8913 9.71795H15.9452L16.0075 9.69715C16.1706 9.64627 16.3152 9.54801 16.4225 9.41493L16.4598 9.3692L16.5428 9.26126L16.63 9.15744H16.6302C16.8232 8.93847 17.063 8.76543 17.3316 8.6511C17.381 8.62844 17.4325 8.61032 17.4853 8.59713C17.5217 8.58395 17.5592 8.57427 17.5973 8.56809C17.648 8.55429 17.6993 8.54316 17.751 8.53472H23.0482C23.3786 8.53472 23.6952 8.66594 23.9288 8.89954C24.1624 9.13313 24.2936 9.44998 24.2936 9.78015C24.2917 9.88829 24.3354 9.99211 24.4139 10.0667C24.4936 10.1413 24.5995 10.1816 24.7087 10.1787H25.1237V15.1603C25.1237 16.5916 24.5552 17.9641 23.5431 18.9761C22.5311 19.9883 21.1583 20.5569 19.7271 20.5569L19.7268 20.557ZM13.5 15.9905C14.0924 16.0004 14.662 16.2212 15.1065 16.6132C15.2454 16.7407 15.3508 16.9004 15.4137 17.0781L15.9906 18.8715C16.0734 19.1224 16.2339 19.3406 16.4488 19.4943C16.6638 19.648 16.9219 19.7293 17.1862 19.7266H19.7267C20.9378 19.7266 22.0993 19.2456 22.9556 18.3891C23.8119 17.5328 24.2932 16.3714 24.2932 15.1604V10.9385C24.0503 10.8526 23.84 10.6934 23.6912 10.4831C23.5425 10.2725 23.4628 10.0212 23.4628 9.7635C23.4646 9.65555 23.421 9.55153 23.3425 9.47716C23.2655 9.39642 23.1594 9.35006 23.0477 9.34842H17.8462L17.7506 9.36922L17.6676 9.39415H17.6678C17.4991 9.46089 17.3485 9.56615 17.2276 9.70129L17.1777 9.7635L17.1404 9.80923C17.1136 9.85084 17.0832 9.88956 17.0492 9.9254C16.8592 10.1648 16.6081 10.3483 16.3226 10.4569L16.198 10.5026L16.0652 10.5358H16.0654C16.0147 10.5494 15.9634 10.5605 15.9117 10.5689C15.8371 10.5749 15.7621 10.5749 15.6876 10.5689H11.1046C11.0389 10.5601 10.9738 10.5475 10.9096 10.5316C10.8649 10.524 10.8214 10.51 10.7808 10.49L10.6978 10.4651C10.408 10.3559 10.1517 10.1728 9.95456 9.93386L9.87155 9.83003L9.80934 9.7635L9.76361 9.71797C9.64949 9.58841 9.50756 9.48623 9.34853 9.41908L9.2822 9.39415H9.23647L9.13677 9.34842H3.95193C3.72265 9.34842 3.53685 9.53422 3.53685 9.7635V10.1413C3.54097 10.1897 3.54097 10.2383 3.53685 10.2867C3.52099 10.5419 3.42005 10.7844 3.25031 10.9757L3.17966 11.0588H3.17986C3.08634 11.1564 2.9749 11.2353 2.85192 11.2913C2.80887 11.3175 2.76293 11.3385 2.71493 11.3535V15.1603C2.71493 16.37 3.1949 17.5301 4.04937 18.3862C4.90404 19.2423 6.06335 19.7245 7.27297 19.7266H9.8135C10.0747 19.7311 10.3308 19.6533 10.5452 19.5043C10.7598 19.3554 10.9222 19.1426 11.0091 18.8965L11.4823 17.4768H11.4825C11.6248 17.0493 11.894 16.6758 12.2546 16.4056C12.6138 16.1362 13.0507 15.9905 13.5 15.9905L13.5 15.9905Z" fill="black"/>
<path d="M17.2364 9.70949L16.6055 9.16981V9.17001C16.7975 8.93498 17.0479 8.75453 17.3318 8.64679L17.6515 9.41492C17.4927 9.48063 17.351 9.58136 17.2364 9.70949Z" fill="black"/>
</svg>
