<svg width="24" height="28" viewBox="0 0 24 28" fill="none" xmlns="http://www.w3.org/2000/svg">
<path d="M12.0001 2.38381C12.1983 2.38381 12.3596 2.2229 12.3596 2.02476V0.359048C12.3596 0.160904 12.1983 0 12.0001 0C11.802 0 11.6406 0.16091 11.6406 0.359048V2.02499C11.6406 2.22291 11.802 2.38381 12.0001 2.38381Z" fill="black"/>
<path d="M8.18923 2.7599C8.24227 2.90591 8.37993 2.99618 8.52685 2.99618C8.56769 2.99618 8.60922 2.98918 8.64961 2.97474C8.8358 2.90681 8.93238 2.70077 8.86446 2.51436L8.29463 0.948824C8.22715 0.762639 8.02066 0.667856 7.83425 0.733977C7.64806 0.801907 7.55148 1.00795 7.6194 1.19436L8.18923 2.7599Z" fill="black"/>
<path d="M5.19738 4.63115C5.26847 4.71623 5.37048 4.75956 5.47271 4.75956C5.55418 4.75956 5.6361 4.73203 5.70335 4.67584C5.85545 4.54833 5.87532 4.32153 5.74803 4.16988L4.67744 2.89321C4.54903 2.7402 4.32245 2.72124 4.17148 2.84852C4.01937 2.97603 3.99951 3.20283 4.12679 3.35449L5.19738 4.63115Z" fill="black"/>
<path d="M1.58342 6.58041L3.02659 7.41338C3.08279 7.44588 3.1444 7.46122 3.20533 7.46122C3.32945 7.46122 3.45042 7.39668 3.51699 7.28181C3.61606 7.10984 3.55693 6.89027 3.38496 6.79074L1.94197 5.95777C1.77068 5.85824 1.55042 5.91737 1.45135 6.08934C1.35228 6.2613 1.41145 6.48088 1.58342 6.58041Z" fill="black"/>
<path d="M0.296897 10.4807L1.93736 10.77C1.95835 10.7736 1.97934 10.7752 2.0001 10.7752C2.17093 10.7752 2.32281 10.6529 2.35351 10.4784C2.38758 10.2832 2.25759 10.0971 2.06193 10.0625L0.421467 9.77321C0.226709 9.74071 0.0396223 9.86913 0.00554779 10.0648C-0.0289808 10.2598 0.101231 10.4462 0.296897 10.4807Z" fill="black"/>
<path d="M2.35337 13.8806C2.3193 13.6854 2.13537 13.557 1.93746 13.5891L0.296991 13.8784C0.101557 13.9129 -0.0286581 14.0993 0.00541645 14.2943C0.0361084 14.4687 0.18776 14.5911 0.358826 14.5911C0.379362 14.5911 0.400575 14.5893 0.421561 14.5859L2.06203 14.2966C2.25724 14.262 2.38745 14.0756 2.35337 13.8806Z" fill="black"/>
<path d="M3.02689 16.9455L1.58372 17.779C1.41244 17.878 1.35308 18.0976 1.45261 18.2696C1.51873 18.3844 1.63992 18.449 1.76381 18.449C1.82475 18.449 1.88658 18.4336 1.94323 18.4007L3.3864 17.5673C3.55768 17.4682 3.61704 17.2486 3.51751 17.0766C3.41867 16.9056 3.19954 16.8464 3.02689 16.9455Z" fill="black"/>
<path d="M22.4161 17.7786L20.9738 16.9452C20.8018 16.8456 20.5818 16.9048 20.4827 17.0763C20.3836 17.2482 20.4423 17.4678 20.6143 17.5669L22.0566 18.4003C22.1135 18.4333 22.1748 18.4486 22.2364 18.4486C22.3601 18.4486 22.4811 18.3845 22.5477 18.2692C22.6467 18.0975 22.588 17.8777 22.4161 17.7786Z" fill="black"/>
<path d="M23.7032 13.8783L22.0627 13.589C21.8646 13.5565 21.6813 13.6854 21.6473 13.8806C21.6123 14.0758 21.7427 14.262 21.9384 14.2965L23.5789 14.5858C23.5999 14.5894 23.6208 14.591 23.6411 14.591C23.8131 14.591 23.9639 14.4687 23.9946 14.2942C24.0293 14.0992 23.8986 13.9128 23.7032 13.8783Z" fill="black"/>
<path d="M21.6468 10.4784C21.6775 10.6528 21.8282 10.7751 22.0002 10.7751C22.0203 10.7751 22.0415 10.7733 22.0625 10.7699L23.7029 10.4806C23.8984 10.4461 24.029 10.2597 23.9941 10.0647C23.9598 9.8695 23.7792 9.74064 23.5786 9.77314L21.9381 10.0625C21.7425 10.097 21.6118 10.2832 21.6468 10.4784Z" fill="black"/>
<path d="M20.7934 7.46088C20.8548 7.46088 20.9162 7.44553 20.9733 7.41258L22.4156 6.57961C22.5876 6.48054 22.6462 6.26096 22.5472 6.08899C22.4472 5.9177 22.2272 5.8579 22.0561 5.95787L20.6138 6.79085C20.4418 6.88991 20.3832 7.1095 20.4822 7.28147C20.5488 7.39656 20.6698 7.46088 20.7934 7.46088Z" fill="black"/>
<path d="M18.5267 4.75999C18.6291 4.75999 18.7309 4.71666 18.802 4.63203L19.8733 3.35537C20.0003 3.20326 19.9812 2.97668 19.8286 2.8494C19.6779 2.7219 19.4499 2.74153 19.3226 2.89318L18.2514 4.17008C18.1243 4.32219 18.1435 4.54877 18.296 4.67605C18.3628 4.73246 18.4452 4.75999 18.5267 4.75999Z" fill="black"/>
<path d="M15.3503 2.97484C15.3907 2.98928 15.4317 2.99628 15.473 2.99628C15.6195 2.99628 15.7572 2.90601 15.8106 2.76L16.3805 1.19446C16.448 1.00828 16.3525 0.802013 16.1656 0.734084C15.9824 0.666605 15.7729 0.761164 15.7052 0.94893L15.1354 2.51446C15.0679 2.70087 15.1634 2.90691 15.3503 2.97484Z" fill="black"/>
<path d="M20.8918 12.1798C20.8918 9.65473 19.8117 7.2393 17.9292 5.55383C16.0197 3.84346 13.5517 3.05763 10.986 3.34424C7.02381 3.78296 3.74819 6.96049 3.19761 10.8992C2.65103 14.8039 4.63899 18.5091 8.15864 20.1937V21.2364C7.99751 21.2718 7.87406 21.4086 7.87406 21.5803C7.87406 21.752 7.99728 21.889 8.15864 21.9242V22.7337C7.99751 22.7692 7.87406 22.9059 7.87406 23.0777C7.87406 23.2494 7.99728 23.3864 8.15864 23.4216V24.2307C7.99751 24.2661 7.87406 24.4028 7.87406 24.5746C7.87406 24.7465 7.99773 24.8835 8.15932 24.9187C8.16315 25.6409 8.75103 26.2272 9.47365 26.2272H9.48764L9.71219 27.0254C9.75597 27.1802 9.89724 27.2872 10.0582 27.2872H13.9842C14.1456 27.2872 14.2866 27.1802 14.3297 27.0254L14.5552 26.224C15.2584 26.2073 15.8255 25.6381 15.8375 24.9336H15.8492C16.0473 24.9336 16.2087 24.7727 16.2087 24.5745C16.2087 24.3764 16.0473 24.2155 15.8492 24.2155H15.8395V23.4365H15.8492C16.0473 23.4365 16.2087 23.2756 16.2087 23.0774C16.2087 22.8793 16.0473 22.7184 15.8492 22.7184H15.8395V21.9389H15.8492C16.0473 21.9389 16.2087 21.778 16.2087 21.5799C16.2087 21.3817 16.0473 21.2208 15.8492 21.2208H15.8395V20.1933C18.9161 18.7179 20.8915 15.5979 20.8915 12.1802L20.8918 12.1798ZM13.7129 26.5693H10.3303L10.2348 26.2274H13.8084L13.7129 26.5693ZM14.5247 25.5093H9.47407C9.15271 25.5093 8.89363 25.2523 8.88144 24.9336H15.1163C15.1041 25.2523 14.8455 25.5093 14.5246 25.5093H14.5247ZM15.1209 24.2157H8.87682V23.4367H15.1203L15.1209 24.2157ZM15.1209 22.7186H8.87682V21.9391H15.1203L15.1209 22.7186ZM15.334 19.6363C15.2042 19.6941 15.1209 19.8225 15.1209 19.9642V21.221H8.87682V19.9642C8.87682 19.8227 8.79399 19.6941 8.66468 19.6363C5.30755 18.1326 3.3963 14.6615 3.90881 10.9986C4.41477 7.38038 7.42458 4.46105 11.0651 4.0578C11.3824 4.02282 11.6982 4.00522 12.0112 4.00522C14.0278 4.00522 15.9312 4.72853 17.4498 6.08886C19.1805 7.63856 20.173 9.85854 20.173 12.1799C20.1728 15.393 18.2737 18.3206 15.3341 19.6366L15.334 19.6363Z" fill="black"/>
<path d="M19.4215 13.3399C19.4215 12.6815 19.1354 12.0718 18.6623 11.629C18.9155 11.2533 19.0638 10.8015 19.0638 10.3154C19.0638 9.185 18.266 8.24122 17.1936 8.01533C17.1936 8.01195 17.1948 8.00879 17.1948 8.0054C17.1948 6.70551 16.1375 5.64821 14.8371 5.64821C14.5302 5.64821 14.226 5.70824 13.9428 5.82356C13.6945 5.62812 13.3851 5.51935 13.0633 5.51935C12.6384 5.51935 12.2608 5.71027 11.9997 6.00658C11.7388 5.7105 11.361 5.51935 10.9361 5.51935C10.6134 5.51935 10.3049 5.62812 10.056 5.82356C9.77368 5.70824 9.46949 5.64821 9.16254 5.64821C7.86218 5.64821 6.80488 6.70551 6.80488 8.0054C6.80488 8.00879 6.80601 8.01195 6.80601 8.01511C5.73316 8.24078 4.93538 9.18455 4.93538 10.3152C4.93538 10.8013 5.08342 11.2531 5.33663 11.6288C4.86384 12.0716 4.57812 12.6811 4.57812 13.3396C4.57812 14.3222 5.18341 15.1645 6.04007 15.5179C6.01931 15.6447 6.00757 15.7733 6.00757 15.9033C6.00757 17.2037 7.06488 18.261 8.36523 18.261C8.62544 18.261 8.87887 18.2027 9.1235 18.1192C9.43471 18.639 9.9849 18.9799 10.6094 18.9799C11.1783 18.9799 11.68 18.7028 12 18.2806C12.3197 18.7026 12.8217 18.9799 13.3906 18.9799C14.0152 18.9799 14.5652 18.6392 14.8762 18.1192C15.1211 18.2027 15.3745 18.261 15.6342 18.261C16.9346 18.261 17.9919 17.2037 17.9919 15.9033C17.9919 15.7733 17.9804 15.6447 17.9594 15.5181C18.8158 15.1649 19.4215 14.3227 19.4215 13.3399ZM11.6401 17.2305C11.6401 17.7992 11.1781 18.2621 10.609 18.2621C10.1653 18.2621 9.77258 17.9802 9.63086 17.5602C9.6277 17.5508 9.62026 17.5442 9.61642 17.5352C9.61258 17.5264 9.61303 17.5169 9.60852 17.5081C9.60175 17.4952 9.59024 17.4876 9.58234 17.4758C9.56767 17.4544 9.553 17.4345 9.5345 17.4169C9.51983 17.4032 9.50448 17.3921 9.48801 17.3813C9.46522 17.3659 9.44265 17.3531 9.41737 17.3431C9.40067 17.3368 9.38442 17.3332 9.36682 17.3294C9.33974 17.3233 9.31311 17.3194 9.2849 17.3201C9.26391 17.3206 9.24382 17.3244 9.22284 17.3285C9.20704 17.3316 9.19147 17.3294 9.17567 17.3348C9.16597 17.338 9.15965 17.3454 9.15062 17.3492C9.14182 17.3531 9.13234 17.3526 9.12354 17.3571C8.89155 17.4786 8.62953 17.5431 8.36481 17.5431C7.46077 17.5431 6.72527 16.8074 6.72527 15.9036C6.72527 15.8271 6.75054 15.7546 6.76092 15.6795C6.81937 15.6837 6.87557 15.6971 6.93514 15.6971C7.45194 15.6971 7.94299 15.5332 8.35416 15.2227C8.51236 15.1031 8.5435 14.8781 8.42435 14.7194C8.30564 14.5624 8.08109 14.5305 7.92109 14.6493C7.63561 14.865 7.2946 14.979 6.93514 14.979C6.03111 14.979 5.2956 14.2437 5.2956 13.3399C5.2956 12.8806 5.496 12.4553 5.82684 12.1472C6.23057 12.4708 6.73561 12.6725 7.29237 12.6725C7.3709 12.6725 7.44628 12.6491 7.52413 12.6414C7.58642 12.882 7.69813 13.1088 7.864 13.299C7.93509 13.38 8.03461 13.4218 8.13459 13.4218C8.21831 13.4218 8.30249 13.3929 8.37087 13.3333C8.51981 13.2031 8.53561 12.9761 8.40494 12.8267C8.26345 12.664 8.18491 12.4559 8.18491 12.2402C8.18491 12.0235 8.26345 11.8155 8.40584 11.6532C8.53696 11.5043 8.52252 11.277 8.37335 11.1466C8.2244 11.0159 7.9967 11.0308 7.86671 11.1791C7.67894 11.393 7.5546 11.6516 7.49976 11.9269C7.43047 11.9357 7.36299 11.9549 7.29236 11.9549C6.38833 11.9549 5.65282 11.2196 5.65282 10.3158C5.65282 9.53839 6.19489 8.88619 6.92833 8.72009C6.95542 8.80472 6.9746 8.89115 7.01138 8.97308C7.09285 9.15452 7.30589 9.23531 7.48666 9.15294C7.6672 9.07147 7.74799 8.85889 7.66652 8.67767C7.57106 8.46644 7.52277 8.24053 7.52277 8.00605C7.52277 7.10202 8.25845 6.36698 9.16231 6.36698C9.43853 6.36698 9.7116 6.43716 9.95218 6.56918C10.1011 6.65155 10.288 6.61748 10.3992 6.48681C10.5324 6.32906 10.7281 6.23834 10.9359 6.23834C11.3243 6.23834 11.64 6.55451 11.64 6.94288L11.6403 17.2305L11.6401 17.2305ZM15.6443 15.2229C16.0564 15.5332 16.5474 15.6973 17.0638 15.6973C17.1231 15.6973 17.1791 15.6842 17.2373 15.6797C17.2475 15.7548 17.2723 15.8268 17.2723 15.9038C17.2723 16.8078 16.5375 17.5433 15.6337 17.5433C15.3653 17.5433 15.1103 17.4806 14.8745 17.3571C14.8657 17.3526 14.8562 17.3531 14.8472 17.3492C14.8384 17.3454 14.832 17.3382 14.8226 17.335C14.8065 17.3296 14.7912 17.3319 14.7754 17.3287C14.7546 17.3249 14.7348 17.3208 14.714 17.3206C14.6836 17.3199 14.6551 17.3235 14.6265 17.3303C14.612 17.3337 14.5985 17.3368 14.5845 17.3418C14.5556 17.3524 14.5301 17.3666 14.505 17.3842C14.4913 17.3939 14.4782 17.4034 14.4658 17.4149C14.4459 17.4336 14.4301 17.4544 14.4148 17.4776C14.4071 17.4887 14.3963 17.4962 14.3897 17.5083C14.385 17.5171 14.3857 17.5268 14.3816 17.5359C14.3778 17.5447 14.3708 17.5512 14.3676 17.5605C14.2266 17.98 13.8337 18.2619 13.39 18.2619C12.821 18.2619 12.3588 17.799 12.3588 17.2304L12.3591 6.94214C12.3591 6.55374 12.6748 6.23759 13.0632 6.23759C13.2701 6.23759 13.4665 6.32831 13.6008 6.48651C13.7104 6.61673 13.8971 6.65103 14.0469 6.56844C14.288 6.43641 14.5608 6.36623 14.8368 6.36623C15.7408 6.36623 16.4754 7.10151 16.4754 8.00531C16.4754 8.24024 16.4271 8.46637 16.3326 8.67646C16.2511 8.857 16.3308 9.07004 16.5113 9.15173C16.6912 9.2332 16.9049 9.15354 16.9866 8.973C17.0236 8.8913 17.043 8.80441 17.0703 8.71956C17.8031 8.88566 18.3447 9.53786 18.3447 10.3153C18.3447 11.2193 17.6099 11.9544 16.7061 11.9544C16.6357 11.9544 16.5682 11.9352 16.4987 11.9264C16.4439 11.6509 16.3197 11.3927 16.1327 11.1789C16.002 11.0293 15.775 11.0144 15.626 11.1455C15.4771 11.2762 15.4622 11.5032 15.5926 11.6522C15.7346 11.8144 15.8127 12.023 15.8127 12.2396C15.8127 12.4558 15.7355 12.6643 15.5935 12.8261C15.4638 12.9757 15.4787 13.2028 15.6285 13.3328C15.696 13.3923 15.7802 13.4212 15.8643 13.4212C15.9643 13.4212 16.0643 13.3795 16.1354 13.2985C16.3008 13.1087 16.4125 12.8819 16.4746 12.6408C16.5524 12.6485 16.6273 12.672 16.7061 12.672C17.2624 12.672 17.7675 12.4702 18.1712 12.1466C18.5025 12.4546 18.7024 12.88 18.7024 13.3393C18.7024 14.2434 17.9676 14.9784 17.0638 14.9784C16.7043 14.9784 16.3633 14.8644 16.0774 14.6487C15.9187 14.5295 15.6924 14.5598 15.5741 14.7193C15.455 14.8782 15.4866 15.1034 15.6443 15.2228L15.6443 15.2229Z" fill="black"/>
<path d="M15.064 14.85C14.8747 14.79 14.673 14.8974 14.6152 15.0872C14.5425 15.3222 14.3827 15.5147 14.1645 15.6295C13.9479 15.7439 13.6971 15.7676 13.4631 15.6947C13.2728 15.6361 13.072 15.7421 13.0142 15.9319C12.9555 16.1213 13.0616 16.3226 13.2509 16.3813C13.4105 16.4304 13.5746 16.4548 13.7366 16.4548C13.9997 16.4548 14.2608 16.3907 14.5003 16.2646C14.8869 16.0603 15.1719 15.7175 15.3007 15.2994C15.3594 15.1093 15.2534 14.9087 15.064 14.85Z" fill="black"/>
<path d="M15.8041 8.49506C15.6455 7.60588 14.7985 7.00718 13.9024 7.16986C13.7069 7.20439 13.5772 7.3908 13.6121 7.58623C13.6462 7.78099 13.8297 7.91459 14.0285 7.87645C14.5273 7.78844 15.0079 8.12154 15.0973 8.6212C15.128 8.7952 15.2797 8.91707 15.4507 8.91707C15.4708 8.91707 15.4927 8.91526 15.5139 8.91142C15.7096 8.8769 15.8393 8.69005 15.8041 8.49506Z" fill="black"/>
<path d="M13.3538 11.1046C13.6282 11.2642 13.7984 11.5596 13.7984 11.8762C13.7984 12.1919 13.6291 12.4873 13.3565 12.6469C13.1845 12.7468 13.1268 12.9664 13.2267 13.1379C13.2933 13.2524 13.4143 13.316 13.537 13.316C13.5993 13.316 13.6616 13.3002 13.7176 13.2668C14.2105 12.9793 14.5172 12.4467 14.5172 11.8762C14.5172 11.305 14.2093 10.7715 13.7149 10.484C13.544 10.3831 13.3238 10.442 13.2238 10.6138C13.1243 10.7853 13.183 11.0049 13.3538 11.1046Z" fill="black"/>
<path d="M10.5358 15.6947C10.0492 15.8459 9.53446 15.5715 9.38459 15.0872C9.32547 14.8974 9.12326 14.79 8.93527 14.85C8.74593 14.9087 8.63986 15.11 8.69809 15.2993C8.91609 16.002 9.56561 16.4543 10.2647 16.4543C10.4252 16.4543 10.5874 16.4306 10.7479 16.3812C10.9372 16.3225 11.0433 16.1212 10.9846 15.9319C10.926 15.7418 10.7233 15.6358 10.5358 15.6947Z" fill="black"/>
<path d="M8.90197 8.62097C8.99134 8.12064 9.46841 7.78667 9.97031 7.87621C10.173 7.91435 10.3526 7.78143 10.3867 7.586C10.4217 7.39079 10.2919 7.20415 10.0965 7.16963C9.2082 7.00782 8.35426 7.60586 8.19515 8.49482C8.16017 8.69003 8.28993 8.87667 8.48537 8.91119C8.5068 8.91503 8.52779 8.91684 8.54901 8.91684C8.71962 8.91684 8.87082 8.79496 8.90197 8.62097Z" fill="black"/>
<path d="M9.48291 11.8759C9.48291 12.4457 9.78893 12.9788 10.2825 13.2665C10.3387 13.2999 10.4007 13.3157 10.463 13.3157C10.5858 13.3157 10.7068 13.2521 10.7733 13.1376C10.8733 12.9664 10.8153 12.7466 10.6436 12.6466C10.371 12.487 10.2008 12.1916 10.2008 11.8759C10.2008 11.5593 10.371 11.2638 10.6454 11.1043C10.8162 11.0048 10.8751 10.7852 10.7751 10.6133C10.6752 10.4413 10.4551 10.3826 10.2841 10.4835C9.78984 10.7708 9.48291 11.3042 9.48291 11.8759Z" fill="black"/>
</svg>
