<svg width="32" height="32" viewBox="0 0 32 32" fill="none" xmlns="http://www.w3.org/2000/svg">
<g clip-path="url(#clip0_38_404)">
<rect width="32" height="32" rx="16" fill="#FBD449"/>
<path d="M23.5686 14.9255C23.748 14.7918 23.8811 14.6054 23.9492 14.3923C24.0172 14.1792 24.0169 13.9502 23.9483 13.7372C23.8796 13.5243 23.746 13.3383 23.5663 13.2051C23.3865 13.0719 23.1696 12.9984 22.9459 12.9947L18.6017 12.8306C18.5803 12.8291 18.5599 12.8215 18.5427 12.8087C18.5256 12.7958 18.5126 12.7783 18.5052 12.7582L17.004 8.7036C16.9286 8.49731 16.7916 8.31919 16.6116 8.19334C16.4316 8.06749 16.2172 8 15.9976 8C15.7779 8 15.5636 8.06749 15.3836 8.19334C15.2036 8.31919 15.0666 8.49731 14.9912 8.7036L13.4948 12.7727C13.4874 12.7928 13.4744 12.8103 13.4573 12.8231C13.4401 12.836 13.4197 12.8436 13.3983 12.8451L9.05408 13.0092C8.8304 13.0129 8.61347 13.0864 8.43372 13.2196C8.25396 13.3527 8.12039 13.5388 8.05172 13.7517C7.98306 13.9646 7.98275 14.1937 8.05084 14.4068C8.11893 14.6199 8.25201 14.8063 8.4314 14.94L11.8392 17.6189C11.8563 17.6323 11.869 17.6504 11.8759 17.671C11.8827 17.6916 11.8834 17.7138 11.8778 17.7347L10.7049 21.8907C10.6441 22.1023 10.65 22.3276 10.7217 22.5357C10.7935 22.7439 10.9276 22.9249 11.1059 23.0541C11.2842 23.1834 11.498 23.2545 11.7181 23.258C11.9383 23.2614 12.1542 23.1969 12.3364 23.0733L15.9373 20.6599C15.955 20.6476 15.976 20.641 15.9976 20.641C16.0191 20.641 16.0402 20.6476 16.0579 20.6599L19.6588 23.0733C19.8386 23.2011 20.0537 23.2698 20.2742 23.2698C20.4948 23.2698 20.7099 23.2011 20.8897 23.0733C21.068 22.9453 21.2023 22.7652 21.274 22.5577C21.3457 22.3503 21.3514 22.1257 21.2903 21.9148L20.1077 17.7444C20.1014 17.7235 20.1018 17.7011 20.1087 17.6804C20.1156 17.6596 20.1287 17.6415 20.1463 17.6286L23.5686 14.9255Z" fill="black"/>
</g>
<defs>
<clipPath id="clip0_38_404">
<rect width="32" height="32" rx="16" fill="white"/>
</clipPath>
</defs>
</svg>
