<svg width="290" height="61" viewBox="0 0 290 61" fill="none" xmlns="http://www.w3.org/2000/svg">
<path d="M95.68 22H92.272L91.144 18.208H86.512L85.408 22H81.904L86.992 5.968H90.664L95.68 22ZM90.4 15.592L88.816 9.28L87.256 15.592H90.4ZM96.3394 16.144C96.3394 11.696 98.0754 9.472 101.547 9.472C102.427 9.472 103.139 9.616 103.683 9.904V4.96H107.067V22.168H104.283L104.091 21.256C103.195 21.896 102.131 22.216 100.899 22.216C99.3954 22.216 98.2594 21.672 97.4914 20.584C96.7234 19.496 96.3394 18.016 96.3394 16.144ZM101.883 12.112C100.331 12.112 99.5554 13.432 99.5554 16.072C99.5554 18.488 100.275 19.696 101.715 19.696C102.451 19.696 103.115 19.512 103.707 19.144V12.448C103.179 12.224 102.571 12.112 101.883 12.112ZM114.464 19.312L117.032 9.688H120.416L116.576 22H112.352L108.584 9.688H111.968L114.464 19.312ZM132.728 21.592C131.912 22.04 131.016 22.264 130.04 22.264C129.08 22.264 128.368 21.896 127.904 21.16C126.976 21.928 125.888 22.312 124.64 22.312C123.392 22.312 122.448 22 121.808 21.376C121.168 20.736 120.848 19.872 120.848 18.784C120.848 18.064 121 17.448 121.304 16.936C121.608 16.424 122 16.048 122.48 15.808C123.36 15.392 124.272 15.184 125.216 15.184C126.176 15.184 126.944 15.208 127.52 15.256V14.08C127.52 13.248 127.352 12.712 127.016 12.472C126.68 12.232 126.104 12.112 125.288 12.112C124.488 12.112 123.584 12.28 122.576 12.616L121.88 10.504C122.472 10.152 123.192 9.888 124.04 9.712C124.904 9.52 125.64 9.424 126.248 9.424C127.88 9.424 129.04 9.776 129.728 10.48C130.432 11.168 130.784 12.352 130.784 14.032V19.072C130.784 19.52 130.984 19.744 131.384 19.744C131.592 19.744 131.888 19.696 132.272 19.6L132.728 21.592ZM125.552 20.08C126.224 20.08 126.88 19.872 127.52 19.456V16.936C127.072 16.904 126.68 16.888 126.344 16.888C124.76 16.888 123.968 17.4 123.968 18.424C123.968 19.528 124.496 20.08 125.552 20.08ZM140.882 9.472C142.274 9.472 143.218 9.832 143.714 10.552C144.226 11.256 144.482 12.264 144.482 13.576V22H141.122V14.176C141.122 13.552 141.018 13.072 140.81 12.736C140.618 12.384 140.138 12.208 139.37 12.208C138.602 12.208 137.906 12.504 137.282 13.096V22H133.85V9.688H136.682L136.97 11.056C137.434 10.624 138.018 10.256 138.722 9.952C139.442 9.632 140.162 9.472 140.882 9.472ZM152.184 22.312C150.536 22.312 149.168 21.784 148.08 20.728C146.992 19.656 146.448 18.048 146.448 15.904C146.448 13.744 146.984 12.136 148.056 11.08C149.128 10.008 150.504 9.472 152.184 9.472C153.176 9.472 154.304 9.656 155.568 10.024L154.92 12.448C153.944 12.224 153.16 12.112 152.568 12.112C151.624 12.112 150.896 12.4 150.384 12.976C149.888 13.536 149.64 14.536 149.64 15.976C149.64 17.416 149.912 18.416 150.456 18.976C151.016 19.536 151.792 19.816 152.784 19.816C153.296 19.816 154.08 19.736 155.136 19.576L155.544 21.76C154.28 22.128 153.16 22.312 152.184 22.312ZM159.788 16.192C159.82 18.592 160.876 19.792 162.956 19.792C163.932 19.792 164.9 19.608 165.86 19.24L166.436 21.52C165.204 22.048 163.836 22.312 162.332 22.312C158.54 22.312 156.644 20.08 156.644 15.616C156.644 13.856 157.116 12.392 158.06 11.224C159.004 10.056 160.364 9.472 162.14 9.472C163.564 9.472 164.66 9.856 165.428 10.624C166.212 11.376 166.604 12.432 166.604 13.792C166.604 14.592 166.5 15.392 166.292 16.192H159.788ZM163.916 14.368V14.224C163.916 12.64 163.356 11.848 162.236 11.848C160.892 11.848 160.084 12.688 159.812 14.368H163.916ZM177.428 16.144H176.828V22H173.372V5.968H178.004C179.22 5.968 180.188 6.072 180.908 6.28C181.644 6.488 182.292 6.848 182.852 7.36C183.828 8.224 184.316 9.408 184.316 10.912C184.316 12.752 183.772 14.08 182.684 14.896C182.316 15.184 181.884 15.424 181.388 15.616L185.492 21.208L182.9 22.792L178.148 16.12C178.004 16.136 177.764 16.144 177.428 16.144ZM180.14 13.096C180.7 12.712 180.98 12.072 180.98 11.176C180.98 10.264 180.748 9.592 180.284 9.16C179.836 8.728 178.892 8.512 177.452 8.512H176.828V13.6H177.092C178.676 13.6 179.692 13.432 180.14 13.096ZM189.389 16.192C189.421 18.592 190.477 19.792 192.557 19.792C193.533 19.792 194.501 19.608 195.461 19.24L196.037 21.52C194.805 22.048 193.437 22.312 191.933 22.312C188.141 22.312 186.245 20.08 186.245 15.616C186.245 13.856 186.717 12.392 187.661 11.224C188.605 10.056 189.965 9.472 191.741 9.472C193.165 9.472 194.261 9.856 195.029 10.624C195.813 11.376 196.205 12.432 196.205 13.792C196.205 14.592 196.101 15.392 195.893 16.192H189.389ZM193.517 14.368V14.224C193.517 12.64 192.957 11.848 191.837 11.848C190.493 11.848 189.685 12.688 189.413 14.368H193.517ZM202.672 12.064C201.584 12.064 201.04 12.424 201.04 13.144C201.04 13.528 201.224 13.856 201.592 14.128C201.96 14.4 202.4 14.64 202.912 14.848C203.44 15.04 203.96 15.264 204.472 15.52C205 15.76 205.448 16.112 205.816 16.576C206.184 17.04 206.368 17.608 206.368 18.28C206.368 19.48 205.96 20.456 205.144 21.208C204.328 21.944 203.128 22.312 201.544 22.312C200.824 22.312 200.064 22.232 199.264 22.072C198.48 21.912 197.904 21.728 197.536 21.52L198.352 19.12C199.6 19.536 200.72 19.744 201.712 19.744C202.72 19.744 203.224 19.352 203.224 18.568C203.224 18.232 203.04 17.928 202.672 17.656C202.304 17.384 201.856 17.136 201.328 16.912C200.816 16.672 200.296 16.416 199.768 16.144C199.256 15.872 198.816 15.488 198.448 14.992C198.08 14.496 197.896 13.92 197.896 13.264C197.896 12.032 198.304 11.088 199.12 10.432C199.936 9.776 201.104 9.448 202.624 9.448C204.144 9.448 205.336 9.696 206.2 10.192L205.408 12.568C204.304 12.232 203.392 12.064 202.672 12.064ZM218.511 15.88C218.511 18.104 218.015 19.736 217.023 20.776C216.031 21.8 214.727 22.312 213.111 22.312C211.495 22.312 210.207 21.8 209.247 20.776C208.303 19.752 207.831 18.128 207.831 15.904C207.831 13.68 208.319 12.056 209.295 11.032C210.287 9.992 211.583 9.472 213.183 9.472C216.735 9.472 218.511 11.608 218.511 15.88ZM215.247 15.856C215.247 14.384 215.071 13.384 214.719 12.856C214.367 12.328 213.847 12.064 213.159 12.064C212.487 12.064 211.967 12.328 211.599 12.856C211.247 13.384 211.071 14.4 211.071 15.904C211.071 18.464 211.767 19.744 213.159 19.744C213.815 19.744 214.327 19.464 214.695 18.904C215.063 18.328 215.247 17.312 215.247 15.856ZM228.009 20.872C226.777 21.832 225.465 22.312 224.073 22.312C222.697 22.312 221.753 21.96 221.241 21.256C220.745 20.536 220.497 19.52 220.497 18.208V9.688H223.857V17.608C223.857 18.248 223.953 18.736 224.145 19.072C224.337 19.408 224.809 19.576 225.561 19.576C226.329 19.576 227.041 19.328 227.697 18.832V9.688H231.057V22.312H228.297L228.009 20.872ZM239.72 12.16C238.408 12.16 237.488 12.536 236.96 13.288V22H233.6V9.688H236.384L236.648 11.248C237.576 10.032 238.76 9.424 240.2 9.424C240.6 9.424 240.968 9.464 241.304 9.544L240.752 12.304C240.4 12.208 240.056 12.16 239.72 12.16ZM247.504 22.312C245.856 22.312 244.488 21.784 243.4 20.728C242.312 19.656 241.768 18.048 241.768 15.904C241.768 13.744 242.304 12.136 243.376 11.08C244.448 10.008 245.824 9.472 247.504 9.472C248.496 9.472 249.624 9.656 250.888 10.024L250.24 12.448C249.264 12.224 248.48 12.112 247.888 12.112C246.944 12.112 246.216 12.4 245.704 12.976C245.208 13.536 244.96 14.536 244.96 15.976C244.96 17.416 245.232 18.416 245.776 18.976C246.336 19.536 247.112 19.816 248.104 19.816C248.616 19.816 249.4 19.736 250.456 19.576L250.864 21.76C249.6 22.128 248.48 22.312 247.504 22.312ZM255.108 16.192C255.14 18.592 256.196 19.792 258.276 19.792C259.252 19.792 260.22 19.608 261.18 19.24L261.756 21.52C260.524 22.048 259.156 22.312 257.652 22.312C253.86 22.312 251.964 20.08 251.964 15.616C251.964 13.856 252.436 12.392 253.38 11.224C254.324 10.056 255.684 9.472 257.46 9.472C258.884 9.472 259.98 9.856 260.748 10.624C261.532 11.376 261.924 12.432 261.924 13.792C261.924 14.592 261.82 15.392 261.612 16.192H255.108ZM259.236 14.368V14.224C259.236 12.64 258.676 11.848 257.556 11.848C256.212 11.848 255.404 12.688 255.132 14.368H259.236ZM268.391 12.064C267.303 12.064 266.759 12.424 266.759 13.144C266.759 13.528 266.943 13.856 267.311 14.128C267.679 14.4 268.119 14.64 268.631 14.848C269.159 15.04 269.679 15.264 270.191 15.52C270.719 15.76 271.167 16.112 271.535 16.576C271.903 17.04 272.087 17.608 272.087 18.28C272.087 19.48 271.679 20.456 270.863 21.208C270.047 21.944 268.847 22.312 267.263 22.312C266.543 22.312 265.783 22.232 264.983 22.072C264.199 21.912 263.623 21.728 263.255 21.52L264.071 19.12C265.319 19.536 266.439 19.744 267.431 19.744C268.439 19.744 268.943 19.352 268.943 18.568C268.943 18.232 268.759 17.928 268.391 17.656C268.023 17.384 267.575 17.136 267.047 16.912C266.535 16.672 266.015 16.416 265.487 16.144C264.975 15.872 264.535 15.488 264.167 14.992C263.799 14.496 263.615 13.92 263.615 13.264C263.615 12.032 264.023 11.088 264.839 10.432C265.655 9.776 266.823 9.448 268.343 9.448C269.863 9.448 271.055 9.696 271.919 10.192L271.127 12.568C270.023 12.232 269.111 12.064 268.391 12.064ZM87.016 48.216H93.136V51H83.536V34.968H87.016V48.216ZM98.3832 48.216H104.503V51H94.9032V34.968H98.3832V48.216ZM115.928 50.88C114.664 51.168 113.488 51.312 112.4 51.312C111.328 51.312 110.392 51.176 109.592 50.904C108.808 50.616 108.08 50.16 107.408 49.536C105.984 48.208 105.272 46.008 105.272 42.936C105.272 41.416 105.48 40.104 105.896 39C106.312 37.88 106.88 37.016 107.6 36.408C108.944 35.272 110.568 34.704 112.472 34.704C113.672 34.704 114.88 34.88 116.096 35.232L115.544 37.704C114.632 37.528 113.784 37.44 113 37.44C111.704 37.44 110.68 37.848 109.928 38.664C109.176 39.464 108.8 40.88 108.8 42.912C108.8 44.928 109.184 46.36 109.952 47.208C110.72 48.04 111.784 48.456 113.144 48.456C114.088 48.456 114.944 48.392 115.712 48.264L115.928 50.88Z" fill="white"/>
<rect y="3" width="58" height="58" rx="9" fill="#3A6AFD"/>
<path d="M39.3099 19.3809C41.3593 21.1015 42.0425 24.2162 41.3174 28.0126C40.5958 31.7906 38.4926 36.1252 35.1567 40.0984C31.8209 44.0717 27.9158 46.8934 24.3197 48.2581C20.7061 49.6294 17.5201 49.4956 15.4708 47.775C13.4215 46.0544 12.7382 42.9397 13.4633 39.1433C14.185 35.3653 16.2881 31.0307 19.624 27.0575C22.9598 23.0842 26.865 20.2625 30.4611 18.8978C34.0746 17.5265 37.2606 17.6603 39.3099 19.3809Z" stroke="white"/>
<path d="M25.2874 36.3811C29.0751 39.1086 33.2309 40.6087 36.9042 40.8084C40.571 41.0078 43.8309 39.9083 45.6815 37.3383C47.5322 34.7683 47.5414 31.328 46.1898 27.9136C44.8357 24.4931 42.0954 21.0274 38.3077 18.2999C34.52 15.5724 30.3643 14.0722 26.691 13.8725C23.0242 13.6732 19.7643 14.7727 17.9136 17.3427C16.063 19.9127 16.0538 23.353 17.4054 26.7674C18.7594 30.1879 21.4998 33.6536 25.2874 36.3811Z" stroke="white"/>
</svg>
