<svg width="33" height="32" viewBox="0 0 33 32" fill="none" xmlns="http://www.w3.org/2000/svg">
<g clip-path="url(#clip0_38_430)">
<rect x="0.571411" width="32" height="32" rx="16" fill="#00C9F2"/>
<path d="M24.14 14.9255C24.3194 14.7918 24.4525 14.6054 24.5206 14.3923C24.5887 14.1792 24.5884 13.9502 24.5197 13.7372C24.451 13.5243 24.3174 13.3383 24.1377 13.2051C23.9579 13.0719 23.741 12.9984 23.5173 12.9947L19.1731 12.8306C19.1518 12.8291 19.1313 12.8215 19.1142 12.8087C19.097 12.7958 19.084 12.7783 19.0766 12.7582L17.5754 8.7036C17.5 8.49731 17.363 8.31919 17.183 8.19334C17.003 8.06749 16.7886 8 16.569 8C16.3494 8 16.135 8.06749 15.955 8.19334C15.775 8.31919 15.638 8.49731 15.5626 8.7036L14.0662 12.7727C14.0588 12.7928 14.0458 12.8103 14.0287 12.8231C14.0115 12.836 13.9911 12.8436 13.9697 12.8451L9.62549 13.0092C9.40181 13.0129 9.18489 13.0864 9.00513 13.2196C8.82537 13.3527 8.6918 13.5388 8.62313 13.7517C8.55447 13.9646 8.55416 14.1937 8.62225 14.4068C8.69034 14.6199 8.82342 14.8063 9.00282 14.94L12.4106 17.6189C12.4277 17.6323 12.4404 17.6504 12.4473 17.671C12.4541 17.6916 12.4548 17.7138 12.4492 17.7347L11.2763 21.8907C11.2155 22.1023 11.2214 22.3276 11.2932 22.5357C11.3649 22.7439 11.4991 22.9249 11.6773 23.0541C11.8556 23.1834 12.0694 23.2545 12.2895 23.258C12.5097 23.2614 12.7256 23.1969 12.9078 23.0733L16.5087 20.6599C16.5264 20.6476 16.5474 20.641 16.569 20.641C16.5906 20.641 16.6116 20.6476 16.6293 20.6599L20.2302 23.0733C20.41 23.2011 20.6251 23.2698 20.8456 23.2698C21.0662 23.2698 21.2813 23.2011 21.4611 23.0733C21.6394 22.9453 21.7737 22.7652 21.8454 22.5577C21.9172 22.3503 21.9228 22.1257 21.8617 21.9148L20.6791 17.7444C20.6728 17.7235 20.6732 17.7011 20.6801 17.6804C20.687 17.6596 20.7002 17.6415 20.7177 17.6286L24.14 14.9255Z" fill="black"/>
</g>
<defs>
<clipPath id="clip0_38_430">
<rect x="0.571411" width="32" height="32" rx="16" fill="white"/>
</clipPath>
</defs>
</svg>
