<svg width="30" height="30" viewBox="0 0 30 30" fill="none" xmlns="http://www.w3.org/2000/svg">
<g clip-path="url(#clip0_57_156)">
<path d="M15 0C6.72375 0 0 6.72375 0 15C0 23.2763 6.72375 30 15 30C23.2763 30 30 23.2763 30 15C30 6.72375 23.2763 0 15 0ZM15 0.9375C18.5888 0.9375 21.8503 2.29031 24.3356 4.50187H5.66344C8.23219 2.20219 11.5519 0.9375 14.9991 0.9375H15ZM6.01594 5.43937H23.985L15.0009 23.4028L6.01594 5.43937ZM4.50187 5.66437V24.3366C2.20219 21.7678 0.9375 18.4481 0.9375 15.0009C0.9375 11.4122 2.29031 8.15063 4.50187 5.66531V5.66437ZM25.4981 5.66437C27.7978 8.23312 29.0625 11.5528 29.0625 15C29.0625 18.5888 27.7097 21.8503 25.4981 24.3356V5.66437ZM5.43937 6.37687L14.5312 24.5606H5.43937V6.37687ZM24.5606 6.37687V24.5606H15.4688L24.5653 6.37687H24.5606ZM5.66437 25.4981H24.3366C21.7678 27.7978 18.4434 29.0625 15.0009 29.0625C11.5584 29.0625 8.23313 27.7978 5.66531 25.4981H5.66437Z" fill="black"/>
</g>
<defs>
<clipPath id="clip0_57_156">
<rect width="30" height="30" fill="white"/>
</clipPath>
</defs>
</svg>
