<svg width="177" height="70" viewBox="0 0 177 70" fill="none" xmlns="http://www.w3.org/2000/svg">
<g filter="url(#filter0_d_57_89)">
<circle cx="34.9999" cy="21.7999" r="16.7999" fill="#3A6AFD"/>
</g>
<path d="M34.9998 5C25.7213 5 18.1998 12.5215 18.1998 21.8C18.1998 31.0785 25.7213 38.6 34.9998 38.6C44.2783 38.6 51.7998 31.0785 51.7998 21.8C51.7998 12.5215 44.2783 5 34.9998 5ZM38.9793 16.6095H36.4541C36.1548 16.6095 35.8223 17.0033 35.8223 17.5265V19.35H38.9811L38.5033 21.9505H35.8223V29.7573H32.8421V21.9505H30.1383V19.35H32.8421V17.8205C32.8421 15.626 34.3646 13.8428 36.4541 13.8428H38.9793V16.6095Z" fill="white"/>
<g filter="url(#filter1_d_57_89)">
<circle cx="88.6" cy="21.7999" r="16.7999" fill="#3A6AFD"/>
</g>
<path d="M88.5999 5C79.3214 5 71.7999 12.5215 71.7999 21.8C71.7999 31.0785 79.3214 38.6 88.5999 38.6C97.8784 38.6 105.4 31.0785 105.4 21.8C105.4 12.5215 97.8784 5 88.5999 5ZM95.4337 18.762C95.4407 18.9055 95.4424 19.049 95.4424 19.189C95.4424 23.564 92.1157 28.6058 86.0292 28.6058C84.2307 28.6087 82.4696 28.0922 80.9577 27.1183C81.2149 27.1498 81.4792 27.162 81.7469 27.162C83.2974 27.162 84.7237 26.6353 85.8559 25.7463C85.1659 25.7327 84.4974 25.5042 83.9434 25.0927C83.3894 24.6811 82.9776 24.107 82.7654 23.4503C83.261 23.5445 83.7714 23.5247 84.2582 23.3925C83.5093 23.2411 82.8358 22.8353 82.3519 22.2439C81.8681 21.6526 81.6036 20.9121 81.6034 20.148V20.1078C82.0497 20.3545 82.5607 20.505 83.1032 20.5225C82.4011 20.0551 81.9041 19.3372 81.7138 18.5155C81.5235 17.6938 81.6543 16.8304 82.0794 16.102C82.9106 17.124 83.9471 17.9601 85.1219 18.556C86.2967 19.152 87.5836 19.4947 88.8992 19.5618C88.7319 18.8518 88.8039 18.1065 89.1039 17.4416C89.404 16.7768 89.9153 16.2297 90.5583 15.8855C91.2013 15.5412 91.9401 15.419 92.6597 15.5379C93.3794 15.6568 94.0396 16.0102 94.5377 16.543C95.2782 16.3965 95.9884 16.1248 96.6377 15.7398C96.3909 16.5065 95.8741 17.1576 95.1834 17.572C95.8394 17.493 96.48 17.3166 97.0839 17.0488C96.6403 17.7136 96.0814 18.2938 95.4337 18.762Z" fill="white"/>
<g filter="url(#filter2_d_57_89)">
<circle cx="142.2" cy="21.7999" r="16.7999" fill="#3A6AFD"/>
</g>
<path d="M147.45 21.8C147.45 23.1924 146.897 24.5277 145.912 25.5123C144.928 26.4969 143.592 27.05 142.2 27.05C140.808 27.05 139.472 26.4969 138.488 25.5123C137.503 24.5277 136.95 23.1924 136.95 21.8C136.95 21.5008 136.982 21.2085 137.036 20.925H135.2V27.9198C135.2 28.4063 135.594 28.8 136.08 28.8H148.322C148.555 28.7995 148.778 28.7066 148.943 28.5416C149.108 28.3765 149.2 28.1529 149.2 27.9198V20.925H147.364C147.419 21.2085 147.45 21.5008 147.45 21.8ZM142.2 25.3C142.66 25.2999 143.115 25.2092 143.54 25.0332C143.964 24.8571 144.35 24.5992 144.675 24.274C145 23.9488 145.258 23.5628 145.434 23.138C145.61 22.7133 145.7 22.258 145.7 21.7983C145.7 21.3385 145.609 20.8833 145.433 20.4586C145.257 20.0339 144.999 19.648 144.674 19.323C144.349 18.998 143.963 18.7402 143.538 18.5644C143.113 18.3886 142.658 18.2981 142.198 18.2983C141.27 18.2985 140.379 18.6675 139.723 19.3243C139.067 19.981 138.698 20.8715 138.698 21.8C138.699 22.7285 139.068 23.6189 139.724 24.2752C140.381 24.9316 141.272 25.3002 142.2 25.3ZM146.4 18.125H148.498C148.638 18.125 148.771 18.0697 148.87 17.9713C148.969 17.8729 149.025 17.7394 149.025 17.6V15.5018C149.025 15.362 148.97 15.2281 148.871 15.1293C148.772 15.0305 148.638 14.975 148.498 14.975H146.4C146.26 14.975 146.126 15.0305 146.028 15.1293C145.929 15.2281 145.873 15.362 145.873 15.5018V17.6C145.875 17.8888 146.111 18.125 146.4 18.125ZM142.2 5C137.744 5 133.471 6.76999 130.321 9.92061C127.17 13.0712 125.4 17.3444 125.4 21.8C125.4 26.2556 127.17 30.5288 130.321 33.6794C133.471 36.83 137.744 38.6 142.2 38.6C144.406 38.6 146.591 38.1655 148.629 37.3212C150.667 36.4769 152.519 35.2394 154.079 33.6794C155.639 32.1194 156.877 30.2674 157.721 28.2291C158.565 26.1908 159 24.0062 159 21.8C159 19.5938 158.565 17.4092 157.721 15.3709C156.877 13.3326 155.639 11.4806 154.079 9.92061C152.519 8.36058 150.667 7.1231 148.629 6.27882C146.591 5.43454 144.406 5 142.2 5ZM150.95 28.6058C150.95 29.675 150.075 30.55 149.006 30.55H135.394C134.325 30.55 133.45 29.675 133.45 28.6058V14.9943C133.45 13.925 134.325 13.05 135.394 13.05H149.006C150.075 13.05 150.95 13.925 150.95 14.9943V28.6058Z" fill="white"/>
<defs>
<filter id="filter0_d_57_89" x="0.199951" y="0" width="69.5999" height="69.6001" filterUnits="userSpaceOnUse" color-interpolation-filters="sRGB">
<feFlood flood-opacity="0" result="BackgroundImageFix"/>
<feColorMatrix in="SourceAlpha" type="matrix" values="0 0 0 0 0 0 0 0 0 0 0 0 0 0 0 0 0 0 127 0" result="hardAlpha"/>
<feOffset dy="13"/>
<feGaussianBlur stdDeviation="9"/>
<feColorMatrix type="matrix" values="0 0 0 0 0.0658854 0 0 0 0 0.0730469 0 0 0 0 0.1375 0 0 0 0.08 0"/>
<feBlend mode="normal" in2="BackgroundImageFix" result="effect1_dropShadow_57_89"/>
<feBlend mode="normal" in="SourceGraphic" in2="effect1_dropShadow_57_89" result="shape"/>
</filter>
<filter id="filter1_d_57_89" x="53.8" y="0" width="69.5999" height="69.6001" filterUnits="userSpaceOnUse" color-interpolation-filters="sRGB">
<feFlood flood-opacity="0" result="BackgroundImageFix"/>
<feColorMatrix in="SourceAlpha" type="matrix" values="0 0 0 0 0 0 0 0 0 0 0 0 0 0 0 0 0 0 127 0" result="hardAlpha"/>
<feOffset dy="13"/>
<feGaussianBlur stdDeviation="9"/>
<feColorMatrix type="matrix" values="0 0 0 0 0.0658854 0 0 0 0 0.0730469 0 0 0 0 0.1375 0 0 0 0.08 0"/>
<feBlend mode="normal" in2="BackgroundImageFix" result="effect1_dropShadow_57_89"/>
<feBlend mode="normal" in="SourceGraphic" in2="effect1_dropShadow_57_89" result="shape"/>
</filter>
<filter id="filter2_d_57_89" x="107.4" y="0" width="69.5999" height="69.6001" filterUnits="userSpaceOnUse" color-interpolation-filters="sRGB">
<feFlood flood-opacity="0" result="BackgroundImageFix"/>
<feColorMatrix in="SourceAlpha" type="matrix" values="0 0 0 0 0 0 0 0 0 0 0 0 0 0 0 0 0 0 127 0" result="hardAlpha"/>
<feOffset dy="13"/>
<feGaussianBlur stdDeviation="9"/>
<feColorMatrix type="matrix" values="0 0 0 0 0.0658854 0 0 0 0 0.0730469 0 0 0 0 0.1375 0 0 0 0.08 0"/>
<feBlend mode="normal" in2="BackgroundImageFix" result="effect1_dropShadow_57_89"/>
<feBlend mode="normal" in="SourceGraphic" in2="effect1_dropShadow_57_89" result="shape"/>
</filter>
</defs>
</svg>
