<svg width="33" height="32" viewBox="0 0 33 32" fill="none" xmlns="http://www.w3.org/2000/svg">
<g clip-path="url(#clip0_38_416)">
<rect x="0.142822" width="32" height="32" rx="16" fill="#714EFF"/>
<path fill-rule="evenodd" clip-rule="evenodd" d="M12.5714 12.2656C13.2546 11.8704 13.7143 11.1317 13.7143 10.2857C13.7143 9.02335 12.6909 8 11.4285 8C10.1662 8 9.14282 9.02335 9.14282 10.2857C9.14282 11.1317 9.60248 11.8704 10.2857 12.2656V12.5011C10.2857 14.4102 11.585 16.0743 13.4371 16.5373C14.2716 16.7459 14.8571 17.4958 14.8571 18.3561V19.7344C14.1739 20.1296 13.7143 20.8682 13.7143 21.7143C13.7143 22.9767 14.7376 24 16 24C17.2623 24 18.2857 22.9767 18.2857 21.7143C18.2857 20.8682 17.826 20.1296 17.1428 19.7344V18.3561C17.1428 17.4958 17.7283 16.7459 18.5628 16.5373C20.4149 16.0743 21.7143 14.4102 21.7143 12.5011V12.2656C22.3975 11.8704 22.8571 11.1317 22.8571 10.2857C22.8571 9.02335 21.8338 8 20.5714 8C19.309 8 18.2857 9.02335 18.2857 10.2857C18.2857 11.1317 18.7453 11.8704 19.4285 12.2656V12.5011C19.4285 13.3613 18.8431 14.1112 18.0085 14.3198C17.2194 14.5171 16.5306 14.9324 16 15.4918C15.4693 14.9324 14.7805 14.5171 13.9914 14.3198C13.1569 14.1112 12.5714 13.3613 12.5714 12.5011V12.2656Z" fill="white"/>
</g>
<defs>
<clipPath id="clip0_38_416">
<rect x="0.142822" width="32" height="32" rx="16" fill="white"/>
</clipPath>
</defs>
</svg>
