<svg width="30" height="30" viewBox="0 0 30 30" fill="none" xmlns="http://www.w3.org/2000/svg">
<path d="M6.05157 14.9062V12.2343C6.05157 9.86105 6.99435 7.58498 8.67251 5.90683C10.3507 4.22867 12.6267 3.28589 15 3.28589C17.3733 3.28589 19.6494 4.22867 21.3275 5.90683C23.0057 7.58498 23.9484 9.86105 23.9484 12.2343V14.9062" stroke="black" stroke-linecap="round"/>
<path d="M5.65314 14.9062H7.85626V21.1781H5.65314C5.28018 21.1781 4.92249 21.03 4.65877 20.7662C4.39505 20.5025 4.24689 20.1448 4.24689 19.7719V16.3125C4.24689 15.9395 4.39505 15.5819 4.65877 15.3181C4.92249 15.0544 5.28018 14.9063 5.65314 14.9062Z" stroke="black" stroke-linecap="round"/>
<path d="M24.3469 21.1781H22.1437V14.9062H24.3469C24.7198 14.9062 25.0775 15.0544 25.3412 15.3181C25.605 15.5818 25.7531 15.9395 25.7531 16.3125V19.7719C25.7531 20.1448 25.605 20.5025 25.3412 20.7662C25.0775 21.0299 24.7198 21.1781 24.3469 21.1781Z" stroke="black" stroke-linecap="round"/>
<path d="M24.2344 21.3562V23.7C24.2344 24.1972 24.0368 24.6741 23.6852 25.0258C23.3336 25.3774 22.8567 25.575 22.3594 25.575H17.1375" stroke="black" stroke-linecap="round"/>
<path d="M16.1953 24.3375H14.2734C13.7557 24.3375 13.3359 24.7573 13.3359 25.275V25.7766C13.3359 26.2944 13.7557 26.7141 14.2734 26.7141H16.1953C16.7131 26.7141 17.1328 26.2944 17.1328 25.7766V25.275C17.1328 24.7573 16.7131 24.3375 16.1953 24.3375Z" stroke="black" stroke-width="2.8125" stroke-linecap="round"/>
</svg>
